<?xml version="1.0" encoding="UTF-8"?>
<svg version="1.1" xmlns="http://www.w3.org/2000/svg" width="1024" height="1024">
  <path
    d="M0 0 C337.92 0 675.84 0 1024 0 C1024 337.92 1024 675.84 1024 1024 C686.08 1024 348.16 1024 0 1024 C0 686.08 0 348.16 0 0 Z "
    fill="#E72366" transform="translate(0,0)" />
  <path
    d="M0 0 C7.85924942 -0.11832012 15.66467433 0.03114377 23.51171875 0.4375 C47.11013733 1.6425053 70.65780016 2.2016888 94.28329849 2.18847656 C96.39308177 2.18752014 98.50285739 2.18845457 100.61264038 2.18969727 C117.27160556 2.1935098 133.90651091 1.93735603 150.5556488 1.35173035 C163.37324755 0.90744977 176.17568263 0.89589351 189 1 C191.87324341 7.94421699 193.68838634 13.96454654 193.5 21.5 C193.48138916 22.31662109 193.46277832 23.13324219 193.44360352 23.97460938 C192.92115292 37.38550415 192.92115292 37.38550415 189 42 C185.9987793 43.01879883 185.9987793 43.01879883 182.32421875 43.64453125 C181.33344833 43.818955 181.33344833 43.818955 180.32266235 43.99690247 C178.21836528 44.35734398 176.11143151 44.68419421 174 45 C173.32665619 45.1015741 172.65331238 45.20314819 171.95956421 45.30780029 C167.94523457 45.90086017 163.92523283 46.43440152 159.8984375 46.93530273 C157.84025499 47.19183055 155.78341994 47.45768339 153.7265625 47.72460938 C148.44802951 48.39694317 143.33480439 49 138 49 C137.67 108.07 137.34 167.14 137 228 C212.24 228 287.48 228 365 228 C365 168.6 365 109.2 365 48 C360.71 47.67 356.42 47.34 352 47 C349.20347403 46.70836973 346.40871366 46.398636 343.6171875 46.0625 C342.91022736 45.97750244 342.20326721 45.89250488 341.47488403 45.80493164 C340.01140696 45.62818722 338.54809695 45.45005373 337.08496094 45.27050781 C334.8436187 44.99615881 332.60155704 44.72832695 330.359375 44.4609375 C328.92443247 44.28684278 327.48953481 44.11237778 326.0546875 43.9375 C324.77062012 43.78152344 323.48655273 43.62554687 322.16357422 43.46484375 C319 43 319 43 316 42 C309.8639701 30.13195862 312.35570333 12.48318573 315 0 C322.85028393 -0.11829645 330.64635015 0.03142879 338.484375 0.4375 C363.66785748 1.71841943 388.79303246 2.20101606 414.00447083 2.18847656 C416.40471624 2.18751316 418.80495502 2.1884614 421.2052002 2.18969727 C438.33582815 2.19312476 455.41725637 1.96948762 472.53442383 1.22045898 C479.23426379 0.93283106 485.91898632 0.88253267 492.625 0.9375 C493.74777344 0.94201172 494.87054687 0.94652344 496.02734375 0.95117188 C498.68496537 0.96252923 501.34244368 0.97863701 504 1 C510.37152397 15.48073631 510.04637162 27.17628336 505 42 C494.50498728 44.21300588 483.93940686 45.76633236 473.3125 47.1875 C472.64466492 47.27785522 471.97682983 47.36821045 471.28875732 47.46130371 C469.3558076 47.72174899 467.42205331 47.97620114 465.48828125 48.23046875 C464.35946533 48.37895264 463.23064941 48.52743652 462.06762695 48.68041992 C459.34334471 48.96423094 456.73435723 49.02366071 454 49 C453.1342771 72.41257916 452.83398548 95.79749858 452.79939139 119.22464645 C452.79121697 124.04825094 452.77758102 128.87184083 452.76467896 133.69543457 C452.74315182 142.01077873 452.72492349 150.32612455 452.70907402 158.6414814 C452.68615465 170.6634141 452.65804527 182.68533049 452.62875474 194.70724916 C452.58134542 214.22206182 452.53801094 233.73688125 452.49731445 253.25170898 C452.45782253 272.18465702 452.4163646 291.11759911 452.37231445 310.05053711 C452.36822804 311.80732718 452.36822804 311.80732718 452.36405908 313.59960795 C452.35037736 319.47638524 452.33665753 325.35316243 452.32291877 331.22993958 C452.20937393 379.81994722 452.10247388 428.40996783 452 477 C453.01487991 477.06384888 454.02975983 477.12769775 455.07539368 477.19348145 C456.42827923 477.28059172 457.78115876 477.36779558 459.1340332 477.45507812 C459.80040047 477.4967511 460.46676773 477.53842407 461.15332794 477.58135986 C466.87987594 477.95391805 472.51513078 478.65379068 478.1875 479.5 C485.79027005 480.58845036 493.33448171 481.49263812 501 482 C503.83326906 488.88860651 504.43523733 494.97148444 504.3125 502.375 C504.31733398 503.82132813 504.31733398 503.82132813 504.32226562 505.296875 C504.27251621 512.04470522 503.40803029 518.40555019 502 525 C491.9851154 525.10603995 481.99590165 525.03347628 471.98703957 524.64374447 C454.94998032 523.98227271 437.93786014 523.86494158 420.89003801 523.89860606 C417.07451101 523.9050128 413.25898249 523.90545667 409.44345093 523.90663147 C402.27270904 523.90969521 395.10198306 523.91783902 387.93124807 523.92798096 C379.74449512 523.93929956 371.55774127 523.94469152 363.37098241 523.94967639 C346.58064574 523.96002802 329.79032492 523.97752742 313 524 C312.34002377 522.3976268 311.68469568 520.79333858 311.03135681 519.18824768 C310.66592742 518.29506616 310.30049803 517.40188463 309.92399502 516.481637 C308.90523497 513.74548303 308.49724692 511.44557946 308.50390625 508.52734375 C308.50326172 507.60759766 308.50261719 506.68785156 308.50195312 505.74023438 C308.52193359 504.81533203 308.54191406 503.89042969 308.5625 502.9375 C308.55541016 502.00873047 308.54832031 501.07996094 308.54101562 500.12304688 C308.65255675 487.89642396 308.65255675 487.89642396 312 483 C314.86169015 481.42033374 317.78161999 481.2945032 321 481 C323.34037161 480.65854657 325.68017404 480.31317917 328.01953125 479.96484375 C330.61664406 479.61829851 333.21431925 479.27594554 335.8125 478.9375 C337.10220703 478.76412109 338.39191406 478.59074219 339.72070312 478.41210938 C347.47020908 477.38903348 355.20524328 476.57881501 363 476 C363.75467871 463.49179245 364.16071645 451.03290754 364.20532227 438.50317383 C364.21507298 436.71866744 364.22522014 434.93416318 364.23572445 433.14966106 C364.262409 428.43523435 364.28377425 423.72079863 364.30391693 419.00634003 C364.32376334 414.5580414 364.34856796 410.10977533 364.3729248 405.66149902 C364.44101626 392.71185752 364.50129629 379.76217589 364.5625 366.8125 C364.7790625 323.3453125 364.7790625 323.3453125 365 279 C289.76 279 214.52 279 137 279 C137 344.34 137 409.68 137 477 C141.29 477.33 145.58 477.66 150 478 C154.02740577 478.45150289 158.04377436 478.92171545 162.0625 479.4375 C163.10019531 479.56874268 164.13789063 479.69998535 165.20703125 479.83520508 C172.16863934 480.72891026 179.09860864 481.71355643 186 483 C190.72369903 496.2713449 190.45629848 511.63110457 186 525 C175.48429926 525.1050403 164.97673874 525.08204925 154.46484375 524.77734375 C123.68378899 523.89424972 92.9111978 523.87755049 62.12084168 523.92797333 C54.99552972 523.93942714 47.87021645 523.94471731 40.74489748 523.94967639 C26.1632556 523.95995354 11.58162814 523.977382 -3 524 C-3.66109868 522.08562405 -4.31629709 520.16920984 -4.96899414 518.25195312 C-5.33448868 517.18497192 -5.69998322 516.11799072 -6.07655334 515.01867676 C-9.13139336 505.03263751 -7.66161116 492.32322231 -3 483 C-1.0324707 482.45336914 -1.0324707 482.45336914 1.57421875 482.03515625 C2.54190186 481.8762793 3.50958496 481.71740234 4.5065918 481.55371094 C6.08114136 481.31056152 6.08114136 481.31056152 7.6875 481.0625 C8.75718018 480.89137695 9.82686035 480.72025391 10.92895508 480.54394531 C18.33788087 479.37402893 25.75830308 478.28304096 33.1875 477.25 C34.10039795 477.12246338 35.0132959 476.99492676 35.95385742 476.86352539 C37.23546753 476.6913147 37.23546753 476.6913147 38.54296875 476.515625 C39.28571045 476.41540039 40.02845215 476.31517578 40.79370117 476.21191406 C43.18583019 475.98215109 45.596862 476 48 476 C48.33 334.76 48.66 193.52 49 48 C45.04 47.67 41.08 47.34 37 47 C32.06609208 46.48818498 27.14050353 45.9143782 22.21533203 45.32543945 C19.97633311 45.05969096 17.73628399 44.80431405 15.49609375 44.54882812 C14.0598201 44.37824064 12.62361916 44.20703948 11.1875 44.03515625 C9.90230469 43.8844165 8.61710937 43.73367676 7.29296875 43.57836914 C4.38996491 43.0684925 2.41695594 42.64996752 0 41 C-2.77989504 34.65726481 -2.29601772 27.8769572 -2.25 21.0625 C-2.25773437 19.92103516 -2.26546875 18.77957031 -2.2734375 17.60351562 C-2.25906055 11.38189222 -1.84017554 5.95136138 0 0 Z "
    fill="#070707" transform="translate(261,250)" />
  <path
    d="M0 0 C75.24 0 150.48 0 228 0 C228 58.74 228 117.48 228 178 C227.67 178 227.34 178 227 178 C227 121.24 227 64.48 227 6 C152.75 6.33 78.5 6.66 2 7 C1.67 9.64 1.34 12.28 1 15 C0.67 15 0.34 15 0 15 C0 10.05 0 5.1 0 0 Z "
    fill="#A01A48" transform="translate(398,529)" />
  <path
    d="M0 0 C0.33 0 0.66 0 1 0 C1.43238213 25.13470595 1.43238213 25.13470595 -1 33 C-2.74846637 34.74846637 -5.04408349 34.13233328 -7.37576294 34.13919067 C-8.17988617 34.13450775 -8.9840094 34.12982483 -9.8125 34.125 C-11.06787064 34.11978836 -11.06787064 34.11978836 -12.34860229 34.11447144 C-18.16386821 34.07065567 -23.97391383 33.95711405 -29.78637695 33.7734375 C-30.47551147 33.75166821 -31.16464598 33.72989891 -31.87466335 33.70746994 C-32.58270139 33.68507877 -33.29073942 33.66268761 -34.02023315 33.63961792 C-53.35602611 33.02946753 -72.67388845 32.83977415 -92.01830292 32.8718338 C-94.42050987 32.87506114 -96.82270555 32.87572397 -99.22491455 32.87567139 C-116.04868352 32.87659907 -132.86703077 32.94680662 -149.6875 33.296875 C-151.59252792 33.33646835 -151.59252792 33.33646835 -153.53604126 33.37686157 C-159.41455963 33.50404349 -165.29200951 33.64949681 -171.16943359 33.81982422 C-172.21711914 33.84643127 -173.26480469 33.87303833 -174.34423828 33.90045166 C-176.26815236 33.94939733 -178.19188323 34.0066191 -180.11523438 34.07415771 C-188.10328013 34.26552364 -188.10328013 34.26552364 -192 32 C-197.30876278 22.62980553 -196.41901921 11.37072542 -196 1 C-195.67 1 -195.34 1 -195 1 C-194.96261719 2.05058594 -194.92523437 3.10117187 -194.88671875 4.18359375 C-194.82098365 5.60159377 -194.75453904 7.01956103 -194.6875 8.4375 C-194.66494141 9.12521484 -194.64238281 9.81292969 -194.61914062 10.52148438 C-194.41439444 14.5233416 -193.78625919 17.97855765 -192.46801758 21.77368164 C-192.19419754 22.56948135 -191.9203775 23.36528107 -191.63825989 24.18519592 C-191.42763412 24.78408127 -191.21700836 25.38296661 -191 26 C-190.32972086 25.99815641 -189.65944172 25.99631283 -188.96885109 25.99441338 C-172.38609648 25.9495469 -155.80336193 25.91681899 -139.22056007 25.89637566 C-131.20007719 25.8862177 -123.17963604 25.87241426 -115.15917969 25.84912109 C-77.38126669 25.74152903 -39.74072893 26.05043232 -2 28 C-1.34 18.76 -0.68 9.52 0 0 Z "
    fill="#9C1442" transform="translate(765,747)" />
  <path
    d="M0 0 C0.33 0 0.66 0 1 0 C1.05519204 1.81213857 1.09331732 3.62479799 1.125 5.4375 C1.14820313 6.44683594 1.17140625 7.45617187 1.1953125 8.49609375 C0.95480385 12.81081897 0.0423509 16.81708225 -1 21 C-11.47628539 21.10361161 -21.94528445 21.08432937 -32.41796875 20.77734375 C-55.00919246 20.12003346 -77.58780032 19.875 -100.1875 19.875 C-100.932738 19.875 -101.677976 19.875 -102.44579697 19.875 C-131.97171785 19.88138786 -161.4818651 20.31191452 -191 21 C-191.49221608 19.56486695 -191.98086985 18.12851178 -192.46801758 16.69165039 C-192.74051834 15.89191299 -193.0130191 15.0921756 -193.29377747 14.26820374 C-194.10879219 11.65058768 -194.49507286 9.16996538 -194.6875 6.4375 C-194.75324219 5.59058594 -194.81898438 4.74367188 -194.88671875 3.87109375 C-194.92410156 3.25363281 -194.96148437 2.63617187 -195 2 C-192.57869669 4.42130331 -192.47159496 5.80111377 -191.875 9.125 C-191.70742188 10.03507813 -191.53984375 10.94515625 -191.3671875 11.8828125 C-191.18542969 12.93082031 -191.18542969 12.93082031 -191 14 C-189.99382881 13.98120789 -189.99382881 13.98120789 -188.96733093 13.96203613 C-126.65980121 12.80782342 -64.26381862 11.75205386 -2 15 C-1.34 10.05 -0.68 5.1 0 0 Z "
    fill="#A31847" transform="translate(449,760)" />
  <path
    d="M0 0 C0.33 0 0.66 0 1 0 C1.31950879 6.60318167 1.04684822 12.98588541 -2 19 C-4.71512317 20.63133405 -7.12576541 21.33541373 -10.24609375 21.76196289 C-11.07375244 21.87870865 -11.90141113 21.99545441 -12.75415039 22.11573792 C-13.63965576 22.23352097 -14.52516113 22.35130402 -15.4375 22.47265625 C-16.8131311 22.6646183 -16.8131311 22.6646183 -18.21655273 22.86045837 C-21.14349576 23.26777551 -24.07163328 23.66555965 -27 24.0625 C-29.92810546 24.4646938 -32.85591866 24.86888216 -35.78344727 25.2752533 C-37.60386085 25.5273833 -39.42465223 25.77680389 -41.24584961 26.02320862 C-42.0735083 26.13680222 -42.90116699 26.25039581 -43.75390625 26.36743164 C-44.47908447 26.46576797 -45.2042627 26.56410431 -45.95141602 26.66542053 C-46.62744873 26.77583176 -47.30348145 26.88624298 -48 27 C-48.72695068 27.11617172 -49.45390137 27.23234344 -50.20288086 27.35203552 C-51.09245483 27.67277794 -51.09245483 27.67277794 -52 28 C-53.45634352 32.36903055 -53.38088897 36.67275418 -53.55540466 41.25535583 C-53.59755897 42.35163943 -53.63971328 43.44792302 -53.68314499 44.57742733 C-54.22339605 60.42198653 -54.13424134 76.27543831 -54.11606562 92.1270355 C-54.11168682 96.93168524 -54.11321273 101.73633393 -54.1139679 106.54098511 C-54.11448849 114.83574309 -54.11139067 123.13049312 -54.10573006 131.4252491 C-54.09755147 143.41760192 -54.09499337 155.40995095 -54.09374207 167.40230625 C-54.09156146 186.86610673 -54.08492844 206.32990298 -54.07543945 225.79370117 C-54.06623956 244.68432596 -54.05917138 263.57494959 -54.05493164 282.46557617 C-54.05466892 283.63289735 -54.05440619 284.80021852 -54.05413551 286.00291307 C-54.05283033 291.8598872 -54.05156666 297.71686134 -54.05032361 303.57383549 C-54.03998191 352.04922658 -54.02239079 400.52461308 -54 449 C-54.66 449 -55.32 449 -56 449 C-56.02292853 399.10488006 -56.04052977 349.20976065 -56.05106533 299.31463647 C-56.05231592 293.4134523 -56.05361025 287.51226814 -56.05493164 281.61108398 C-56.05519395 280.43634891 -56.05545626 279.26161384 -56.05572652 278.05128073 C-56.06006843 259.07274678 -56.0679478 240.09421588 -56.0771528 221.11568374 C-56.08653055 201.61719924 -56.09206432 182.11871633 -56.09408849 162.62022966 C-56.09545518 150.60522019 -56.09975925 138.59021935 -56.10791647 126.57521253 C-56.11323484 118.31696305 -56.11479281 110.05871797 -56.11350138 101.8004669 C-56.1128659 97.04811356 -56.11378472 92.29577522 -56.11920547 87.54342461 C-56.17426476 36.60871636 -56.17426476 36.60871636 -54 21 C-49.30870525 20.32262658 -44.61712382 19.64728295 -39.92529297 18.97363281 C-38.3370011 18.74531785 -36.74878199 18.51649596 -35.16064453 18.28710938 C-24.45278112 16.74094544 -13.73928034 15.31176141 -3 14 C-2.01 9.38 -1.02 4.76 0 0 Z "
    fill="#B71B50" transform="translate(769,278)" />
  <path
    d="M0 0 C2 3 2 3 2 6 C3.02246826 6.11069824 4.04493652 6.22139648 5.09838867 6.33544922 C8.95482989 6.75375507 12.8108426 7.17590738 16.66674805 7.59912109 C18.32386316 7.78048091 19.98108719 7.96084876 21.63842773 8.14013672 C24.04441393 8.40059727 26.44996291 8.66483128 28.85546875 8.9296875 C29.57582809 9.00686005 30.29618744 9.08403259 31.03837585 9.1635437 C37.74038215 9.90782035 44.31310198 10.97124646 51 12 C51 71.4 51 130.8 51 192 C50.67 192 50.34 192 50 192 C50 134.58 50 77.16 50 18 C45.71 17.67 41.42 17.34 37 17 C31.87947241 16.54823724 26.76830467 16.04225315 21.65771484 15.49023438 C20.11891684 15.32829029 18.57913292 15.17548622 17.03857422 15.03125 C14.78066249 14.81869601 12.52763625 14.57666009 10.2734375 14.328125 C9.58599457 14.26957336 8.89855164 14.21102173 8.1902771 14.1506958 C4.68852109 13.73127818 3.29318009 13.36992223 1.0637207 10.55688477 C-0.50086572 6.79605997 -0.20540179 4.03956854 0 0 Z "
    fill="#B01D4F" transform="translate(575,286)" />
  <path
    d="M0 0 C0.33 0 0.66 0 1 0 C1.93911998 24.93885277 1.93911998 24.93885277 -3 31 C-6.10957608 32.00804939 -8.78180883 32.5440484 -12 33 C-13.29268799 33.19215088 -14.58537598 33.38430176 -15.91723633 33.58227539 C-21.30231856 34.36723609 -26.69471384 35.09763416 -32.08813477 35.82275391 C-34.41752951 36.1373499 -36.74587927 36.45895025 -39.07421875 36.78125 C-40.13379036 36.92040833 -40.13379036 36.92040833 -41.21476746 37.06237793 C-45.45374905 37.65284169 -48.85994176 38.61998059 -53 40 C-53.66 49.24 -54.32 58.48 -55 68 C-55.33 68 -55.66 68 -56 68 C-56.02979812 64.6250196 -56.04705848 61.25007419 -56.0625 57.875 C-56.07087891 56.94300781 -56.07925781 56.01101563 -56.08789062 55.05078125 C-56.11414636 47.33159396 -55.6297332 39.69169048 -55 32 C-54.25129639 31.89453857 -53.50259277 31.78907715 -52.73120117 31.68041992 C-33.18487911 28.93640057 -33.18487911 28.93640057 -13.68823242 25.86401367 C-10.38623516 25.32284564 -7.3601327 25 -4 25 C-1.30202781 16.68549452 -0.36900907 8.71624869 0 0 Z "
    fill="#A4204D" transform="translate(454,267)" />
  <path
    d="M0 0 C0.33 0 0.66 0 1 0 C1.04898437 1.29035156 1.09796875 2.58070313 1.1484375 3.91015625 C1.22351803 5.62762347 1.29906354 7.34507041 1.375 9.0625 C1.4059375 9.91005859 1.436875 10.75761719 1.46875 11.63085938 C1.70531783 16.73678171 2.38044506 21.14791873 4 26 C12.67178065 27.9583553 21.43512699 29.00811326 30.25 30.0625 C32.40377331 30.32289671 34.55740328 30.58440755 36.71087646 30.84727478 C38.65366921 31.08401387 40.59684351 31.31761568 42.54003906 31.55102539 C45.70944074 31.96229618 48.85171684 32.45185603 52 33 C52 34.98 52 36.96 52 39 C42.49691099 38.3651381 33.0588946 37.39102085 23.6027832 36.27050781 C21.27803252 35.99592901 18.95254645 35.72827501 16.62695312 35.4609375 C15.14318072 35.28687084 13.65945483 35.11240701 12.17578125 34.9375 C11.48317703 34.85830322 10.79057281 34.77910645 10.07698059 34.69750977 C5.22932958 34.11466479 5.22932958 34.11466479 3 33 C-1.02769641 22.41344016 -0.29910612 11.11123831 0 0 Z "
    fill="#A6224F" transform="translate(258,265)" />
  <path
    d="M0 0 C0.33 0 0.66 0 1 0 C1.43238213 25.13470595 1.43238213 25.13470595 -1 33 C-2.74846637 34.74846637 -5.04408349 34.13233328 -7.37576294 34.13919067 C-8.17988617 34.13450775 -8.9840094 34.12982483 -9.8125 34.125 C-11.06787064 34.11978836 -11.06787064 34.11978836 -12.34860229 34.11447144 C-18.16386821 34.07065567 -23.97391383 33.95711405 -29.78637695 33.7734375 C-30.47551147 33.75166821 -31.16464598 33.72989891 -31.87466335 33.70746994 C-32.58270139 33.68507877 -33.29073942 33.66268761 -34.02023315 33.63961792 C-53.35602611 33.02946753 -72.67388845 32.83977415 -92.01830292 32.8718338 C-94.42050987 32.87506114 -96.82270555 32.87572397 -99.22491455 32.87567139 C-116.04868352 32.87659907 -132.86703077 32.94680662 -149.6875 33.296875 C-151.59252792 33.33646835 -151.59252792 33.33646835 -153.53604126 33.37686157 C-159.41455963 33.50404349 -165.29200951 33.64949681 -171.16943359 33.81982422 C-172.21711914 33.84643127 -173.26480469 33.87303833 -174.34423828 33.90045166 C-176.26815236 33.94939733 -178.19188323 34.0066191 -180.11523438 34.07415771 C-188.10328013 34.26552364 -188.10328013 34.26552364 -192 32 C-197.30876278 22.62980553 -196.41901921 11.37072542 -196 1 C-195.67 1 -195.34 1 -195 1 C-194.97421875 2.01578125 -194.9484375 3.0315625 -194.921875 4.078125 C-194.62153768 12.15867585 -193.76382744 19.10445075 -190.83984375 26.7421875 C-190 29 -190 29 -190 31 C-189.28974828 30.99907821 -188.57949656 30.99815641 -187.84772205 30.99720669 C-170.42111678 30.97494809 -152.99451519 30.95849064 -135.56789875 30.94818783 C-127.13990576 30.94307076 -118.71192237 30.93611765 -110.28393555 30.92456055 C-102.9227166 30.91447125 -95.56150461 30.90811339 -88.20027894 30.90591151 C-84.31657338 30.90462809 -80.43288769 30.90169803 -76.54918861 30.89426994 C-52.01871674 30.84922867 -27.46598834 31.01398713 -3 33 C-1.47627399 22.00846188 -0.52127198 11.08388834 0 0 Z "
    fill="#B8184E" transform="translate(765,747)" />
  <path
    d="M0 0 C2.65271744 2.65271744 2.82672887 4.85536818 3.625 8.5 C3.88539063 9.6653125 4.14578125 10.830625 4.4140625 12.03125 C5 15 5 15 5 17 C5.73226303 16.97003433 6.46452606 16.94006866 7.21897888 16.90919495 C33.37744165 15.88274522 59.51983151 15.87816795 85.69500732 15.93133545 C91.38846453 15.94175792 97.08192653 15.94617263 102.77539062 15.95117188 C113.85027254 15.96174216 124.92513387 15.97869763 136 16 C135.67 16.66 135.34 17.32 135 18 C134.16999985 17.99777939 133.33999969 17.99555878 132.48484802 17.99327087 C121.80240822 17.9660632 111.11996922 17.94811187 100.4375 17.9375 C99.58190994 17.93664398 98.72631989 17.93578796 97.84480286 17.93490601 C66.55162685 17.90726788 35.28514295 18.25265478 4 19 C3.50778392 17.56486695 3.01913015 16.12851178 2.53198242 14.69165039 C2.25948166 13.89191299 1.9869809 13.0921756 1.70622253 12.26820374 C0.89120781 9.65058768 0.50492714 7.16996538 0.3125 4.4375 C0.24675781 3.59058594 0.18101562 2.74367188 0.11328125 1.87109375 C0.07589844 1.25363281 0.03851563 0.63617187 0 0 Z "
    fill="#B91B51" transform="translate(254,762)" />
  <path
    d="M0 0 C0.33 0 0.66 0 1 0 C1.8980912 23.84931071 1.8980912 23.84931071 -3 31 C-5.97130086 32.66346959 -8.63885609 32.86852668 -12 33 C-13.175625 33.20625 -14.35125 33.4125 -15.5625 33.625 C-19.42210065 34.04604734 -23.11993657 34.06807129 -27 34 C-27 33.67 -27 33.34 -27 33 C-23.91747911 32.49490361 -20.83386475 31.99682001 -17.75 31.5 C-16.87730469 31.35691406 -16.00460937 31.21382813 -15.10546875 31.06640625 C-14.26113281 30.93105469 -13.41679687 30.79570312 -12.546875 30.65625 C-11.77182617 30.53056641 -10.99677734 30.40488281 -10.19824219 30.27539062 C-8 30 -8 30 -4 30 C-3.95101563 29.34773438 -3.90203125 28.69546875 -3.8515625 28.0234375 C-3.77679688 27.14945312 -3.70203125 26.27546875 -3.625 25.375 C-3.55539062 24.51648438 -3.48578125 23.65796875 -3.4140625 22.7734375 C-3 20 -3 20 -2 17.125 C-0.86024718 13.56327243 -0.58605835 10.35369746 -0.375 6.625 C-0.30023438 5.37976563 -0.22546875 4.13453125 -0.1484375 2.8515625 C-0.09945313 1.91054688 -0.05046875 0.96953125 0 0 Z "
    fill="#BD2257" transform="translate(454,267)" />
  <path
    d="M0 0 C0.33 0 0.66 0 1 0 C1.31950879 6.60318167 1.04684822 12.98588541 -2 19 C-7.00417717 22.28463481 -13.19555889 22.14157173 -19 22 C-19 21.67 -19 21.34 -19 21 C-17.2508503 20.66223316 -15.50063855 20.32996329 -13.75 20 C-12.77546875 19.814375 -11.8009375 19.62875 -10.796875 19.4375 C-8 19 -8 19 -4 19 C-3.52040222 16.77092605 -3.0413392 14.54173703 -2.5625 12.3125 C-2.29566406 11.07113281 -2.02882813 9.82976562 -1.75390625 8.55078125 C-1.14944864 5.70387985 -0.56235316 2.85544374 0 0 Z "
    fill="#BB1C52" transform="translate(769,278)" />
  <path
    d="M0 0 C0.33 0 0.66 0 1 0 C1.04898438 1.07378906 1.09796875 2.14757812 1.1484375 3.25390625 C1.22353398 4.69012642 1.29907876 6.12632319 1.375 7.5625 C1.4059375 8.26697266 1.436875 8.97144531 1.46875 9.69726562 C1.72952558 14.41295741 2.54658123 18.50385496 4 23 C3.01 22.67 2.02 22.34 1 22 C-0.05086948 19.23633753 -0.11860688 16.60496259 -0.09765625 13.671875 C-0.09282227 12.47304688 -0.09282227 12.47304688 -0.08789062 11.25 C-0.07951172 10.425 -0.07113281 9.6 -0.0625 8.75 C-0.05798828 7.90953125 -0.05347656 7.0690625 -0.04882812 6.203125 C-0.03707961 4.13538599 -0.01914522 2.06768376 0 0 Z "
    fill="#9B1543" transform="translate(569,748)" />
  <path
    d="M0 0 C2.3129482 2.3129482 2.49580975 3.47904875 3.125 6.625 C3.29257812 7.44226563 3.46015625 8.25953125 3.6328125 9.1015625 C3.81457031 10.04128906 3.81457031 10.04128906 4 11 C3.01 10.67 2.02 10.34 1 10 C0.67 6.7 0.34 3.4 0 0 Z "
    fill="#AB1A4C" transform="translate(254,762)" />
</svg>